<?xml version="1.0" encoding="UTF-8" standalone="no"?>
<svg
   xmlns:dc="http://purl.org/dc/elements/1.1/"
   xmlns:cc="http://creativecommons.org/ns#"
   xmlns:rdf="http://www.w3.org/1999/02/22-rdf-syntax-ns#"
   xmlns:svg="http://www.w3.org/2000/svg"
   xmlns="http://www.w3.org/2000/svg"
   xmlns:sodipodi="http://sodipodi.sourceforge.net/DTD/sodipodi-0.dtd"
   xmlns:inkscape="http://www.inkscape.org/namespaces/inkscape"
   height="24"
   viewBox="0 0 24 24"
   width="24"
   version="1.1"
   id="svg10"
   sodipodi:docname="atm-m.svg"
   inkscape:version="0.92.3 (2405546, 2018-03-11)">
  <metadata
     id="metadata16">
    <rdf:RDF>
      <cc:Work
         rdf:about="">
        <dc:format>image/svg+xml</dc:format>
        <dc:type
           rdf:resource="http://purl.org/dc/dcmitype/StillImage" />
        <dc:title></dc:title>
      </cc:Work>
    </rdf:RDF>
  </metadata>
  <defs
     id="defs14" />
  <sodipodi:namedview
     pagecolor="#ffffff"
     bordercolor="#666666"
     borderopacity="1"
     objecttolerance="10"
     gridtolerance="10"
     guidetolerance="10"
     inkscape:pageopacity="0"
     inkscape:pageshadow="2"
     inkscape:window-width="1215"
     inkscape:window-height="748"
     id="namedview12"
     showgrid="false"
     inkscape:zoom="13.906433"
     inkscape:cx="8.4252705"
     inkscape:cy="14.161025"
     inkscape:window-x="67"
     inkscape:window-y="27"
     inkscape:window-maximized="0"
     inkscape:current-layer="svg10" />
  <g
     id="g2877"
     transform="matrix(0.05147039,0,0,0.05147039,11.459626,11.001587)">
    <circle
       r="211.62695"
       cy="19.397814"
       cx="10.498738"
       id="path1043"
       style="opacity:1;fill:#0b1728;fill-opacity:1;stroke:none;stroke-width:6.07246351;stroke-linecap:round;stroke-miterlimit:4;stroke-dasharray:none;stroke-opacity:1" />
    <path
       inkscape:connector-curvature="0"
       id="path1080"
       d="m -73.985365,-37.54665 h 168.57143 l 4.28572,1.78568 32.499995,151.78575 -1.42858,4.28568 -4.28572,0.71429 -2.50001,1.07142 -221.428565,-0.35716 -7.363275,-0.80122 h -1.9e-4 v 0 0 0 0 0 l -3.56977,-1.53491 -0.88388,-2.02031 0.12624,-3.03046 32.072355,-146.97721 0.60068,-2.51089 1.16073,-1.16073 1.6964,-0.80357 z"
       style="fill:#004455;stroke:#000000;stroke-width:0.99999994px;stroke-linecap:butt;stroke-linejoin:miter;stroke-opacity:1" />
    <path
       sodipodi:nodetypes="ccssscccccccccccccccccsscccccccsscscsccsccccsscccccccccccccsscccc"
       inkscape:connector-curvature="0"
       id="path998"
       d="m 130.09771,127.72559 c 2.44301,-1.08325 5.35702,-3.02532 6.57955,-4.38493 3.92179,-4.36165 3.85803,-4.85941 -7.22147,-56.37222 -5.5005,-25.57383 -10.00089,-46.79259 -10.00089,-47.15278 0,-0.41269 4.18892,-0.65488 11.3269,-0.65488 10.96978,0 11.45102,-0.0571 15.26457,-1.81104 2.86684,-1.31856 4.5414,-2.6708 6.15764,-4.97234 l 2.21994,-3.1612396 V -35.93181 -81.07978 l -2.21994,-3.16123 c -1.61624,-2.30155 -3.2908,-3.65378 -6.15764,-4.97231 l -3.9377,-1.81107 H 10.498715 -121.11124 l -3.9377,1.81107 c -2.86685,1.31853 -4.5414,2.67076 -6.15764,4.97231 l -2.21995,3.16123 v 45.14797 45.1479704 l 2.21995,3.1612396 c 1.61624,2.30154 3.29079,3.65378 6.15764,4.97234 3.81354,1.75397 4.29483,1.81104 15.26461,1.81104 7.13794,0 11.326865,0.24227 11.326865,0.65488 0,0.36019 -4.500395,21.57895 -10.000855,47.15278 -11.10157,51.61534 -11.15524,52.03703 -7.1754,56.37222 2.65126,2.88797 5.89996,4.67342 10.50595,5.77402 2.61105,0.62389 28.643645,0.77477 117.098875,0.6788 l 113.741405,-0.12359 z m -235.73227,-6.78777 c -5.37782,-2.14919 -5.38035,-1.69028 0.15156,-27.35055 2.71509,-12.59429 10.028145,-46.60108 16.251245,-75.57063 6.22311,-28.96959 11.53724,-52.9889 11.80917,-53.3763 1.7542,-2.49895 2.37075,-2.5166 87.92138,-2.5166 85.55066,0 86.16718,0.0189 87.92141,2.5166 0.27213,0.3874 5.586065,24.40671 11.809165,53.3763 6.22311,28.96955 13.53615,62.97634 16.25121,75.57063 5.53187,25.66027 5.5293,25.20136 0.15156,27.35055 -3.04596,1.21728 -6.09309,1.25005 -116.133275,1.25005 -110.04015,0 -113.087285,-0.034 -116.133235,-1.25005 z M 71.616705,107.30257 c 4.92087,-2.21019 5.13241,-3.17521 3.5512,-16.19731 -0.75753,-6.23845 -1.73737,-11.96168 -2.17742,-12.7183 -0.44005,-0.75663 -2.17467,-2.0691 -3.85474,-2.91666 -2.88741,-1.45663 -3.85686,-1.5526 -17.70803,-1.75287 -16.22559,-0.23471 -19.57471,0.30878 -22.5927,3.66561 -1.50481,1.6738 -1.53898,2.12992 -1.02618,13.69856 0.59411,13.4016 0.81854,14.03357 5.74655,16.18118 2.82807,1.23246 4.38115,1.34146 19.11957,1.34196 14.61543,4.5e-4 16.29929,-0.11528 18.94175,-1.30217 z m -161.90537,-144.36865 -0.0707,-18.31019 H 10.498685 111.35677 l -0.0707,18.31019 -0.0707,18.31022 -2.06831,-9.16429 c -2.33027,-10.32492 -2.60772,-10.93754 -6.21796,-13.72827 -5.380345,-4.15903 -1.84026,-4.00562 -92.430465,-4.00562 -90.59017,0 -87.05008,-0.15345 -92.43039,4.00562 -3.61024,2.79073 -3.88769,3.40335 -6.21796,13.72827 l -2.06835,9.16429 z"
       style="fill:#ffffff;fill-opacity:1;stroke-width:0.69076806" />
    <path
       sodipodi:nodetypes="ccccc"
       inkscape:connector-curvature="0"
       id="path1053"
       d="m -56.934785,-25.85483 h 15.49894 l -12.62189,130.51015 -23.0982,0.10016 z"
       style="fill:#ffffff;fill-opacity:1;stroke:none;stroke-width:0.94974226px;stroke-linecap:butt;stroke-linejoin:miter;stroke-opacity:1" />
  </g>
</svg>
