<?xml version="1.0" encoding="UTF-8" standalone="no"?>
<svg
   xmlns:dc="http://purl.org/dc/elements/1.1/"
   xmlns:cc="http://creativecommons.org/ns#"
   xmlns:rdf="http://www.w3.org/1999/02/22-rdf-syntax-ns#"
   xmlns:svg="http://www.w3.org/2000/svg"
   xmlns="http://www.w3.org/2000/svg"
   xmlns:sodipodi="http://sodipodi.sourceforge.net/DTD/sodipodi-0.dtd"
   xmlns:inkscape="http://www.inkscape.org/namespaces/inkscape"
   height="16"
   viewBox="0 0 16 16"
   width="16"
   version="1.1"
   id="svg10"
   sodipodi:docname="bus-s.svg"
   inkscape:version="0.92.3 (2405546, 2018-03-11)">
  <metadata
     id="metadata16">
    <rdf:RDF>
      <cc:Work
         rdf:about="">
        <dc:format>image/svg+xml</dc:format>
        <dc:type
           rdf:resource="http://purl.org/dc/dcmitype/StillImage" />
        <dc:title></dc:title>
      </cc:Work>
    </rdf:RDF>
  </metadata>
  <defs
     id="defs14" />
  <sodipodi:namedview
     pagecolor="#ffffff"
     bordercolor="#666666"
     borderopacity="1"
     objecttolerance="10"
     gridtolerance="10"
     guidetolerance="10"
     inkscape:pageopacity="0"
     inkscape:pageshadow="2"
     inkscape:window-width="1215"
     inkscape:window-height="748"
     id="namedview12"
     showgrid="false"
     inkscape:zoom="4.9166667"
     inkscape:cx="13.739664"
     inkscape:cy="-11.278863"
     inkscape:window-x="67"
     inkscape:window-y="27"
     inkscape:window-maximized="0"
     inkscape:current-layer="svg10" />
  <g
     id="g2151"
     transform="matrix(0.66381932,0,0,0.66381932,0.03416816,0.03416816)">
    <circle
       r="11.192529"
       cy="12"
       cx="12"
       id="path1043"
       style="opacity:1;fill:#4d4d4d;fill-opacity:1;stroke:none;stroke-width:0.32116053;stroke-linecap:round;stroke-miterlimit:4;stroke-dasharray:none;stroke-opacity:1" />
    <path
       inkscape:connector-curvature="0"
       id="path3293"
       d="m 8.0981396,17.730746 c -0.283023,-0.174819 -0.381693,-0.404397 -0.382131,-0.889122 -1.61e-4,-0.264418 -0.0052,-0.276557 -0.123965,-0.30072 -0.185691,-0.03779 -0.514032,-0.275738 -0.64105,-0.46457 L 6.8385306,15.90913 V 11.358958 6.8087889 l 0.124093,-0.1875225 c 0.06825,-0.1031372 0.208482,-0.2433639 0.311616,-0.3116194 l 0.187523,-0.1240934 h 4.5542474 4.554247 l 0.191659,0.134958 c 0.109259,0.076933 0.236096,0.2219898 0.295016,0.3373915 l 0.10336,0.2024405 0.001,4.4956474 c 0.001,4.484267 0.001,4.496145 -0.09373,4.691886 -0.105892,0.218744 -0.32363,0.413465 -0.545554,0.487884 l -0.146707,0.0492 -0.02249,0.378566 c -0.03909,0.6578 -0.243622,0.850919 -0.901213,0.850919 -0.627696,0 -0.810329,-0.187286 -0.844455,-0.865983 l -0.01978,-0.393627 h -2.5587 -2.5587074 v 0.371835 c 0,0.429448 -0.07832,0.625081 -0.314879,0.786556 -0.125514,0.08567 -0.207709,0.101191 -0.535259,0.101051 -0.297994,-1.6e-4 -0.418009,-0.01933 -0.521934,-0.08353 z m 0.863051,-2.348542 c 0.180087,-0.06823 0.327916,-0.216192 0.423998,-0.424371 0.107995,-0.234001 0.106491,-0.444589 -0.0048,-0.674526 -0.29768,-0.614923 -1.157897,-0.589412 -1.445095,0.04286 -0.104499,0.230054 -0.104488,0.404021 4.9e-5,0.631666 0.180854,0.393845 0.623336,0.576886 1.02587,0.424371 z m 6.7928934,1.6e-4 c 0.155141,-0.05862 0.36035,-0.247919 0.44556,-0.411024 0.159143,-0.304627 0.01811,-0.803762 -0.284792,-1.007884 -0.386682,-0.260587 -0.945096,-0.116102 -1.160392,0.300243 -0.08832,0.170793 -0.08341,0.553614 0.0096,0.749658 0.154723,0.326064 0.632417,0.504114 0.990006,0.369007 z m -2.460058,-1.954032 c 0,-0.05843 -0.174945,-0.06748 -1.304593,-0.06748 -1.129651,0 -1.304596,0.009 -1.304596,0.06748 0,0.05843 0.174945,0.06748 1.304596,0.06748 1.129648,0 1.304593,-0.009 1.304593,-0.06748 z m -0.0225,-0.337395 c 0,-0.05809 -0.174937,-0.06915 -1.256631,-0.07945 -0.731349,-0.007 -1.274106,0.0055 -1.298429,0.02981 -0.123906,0.123905 0.04425,0.140766 1.287289,0.129056 1.091612,-0.01031 1.267771,-0.02131 1.267771,-0.07942 z m -1.741973,-2.049418 c 0.09982,-0.06992 0.09998,-0.07241 0.09998,-1.5269716 0,-1.4545731 -1.56e-4,-1.4570629 -0.09998,-1.5269759 -0.08642,-0.060535 -0.342646,-0.070031 -1.8894124,-0.070031 -1.729451,0 -1.792448,0.00313 -1.879407,0.089974 -0.08616,0.086154 -0.08997,0.1499525 -0.08997,1.5052781 0,1.3980204 0.001,1.4164274 0.09846,1.5070324 0.09564,0.0891 0.149291,0.09172 1.879401,0.09172 1.5390904,0 1.7945274,-0.0095 1.8809324,-0.07003 z m 4.688557,-0.01995 c 0.08617,-0.08616 0.08997,-0.149952 0.08997,-1.507029 0,-1.3570806 -0.0038,-1.4208719 -0.08997,-1.5070332 -0.08696,-0.086959 -0.149952,-0.089971 -1.8794,-0.089971 -1.546769,0 -1.802993,0.00951 -1.889415,0.070028 -0.09982,0.069917 -0.09998,0.072406 -0.09998,1.526976 0,1.4545662 1.61e-4,1.4570592 0.09998,1.5269752 0.08642,0.06053 0.342646,0.07003 1.889415,0.07003 1.729448,0 1.792445,-0.0031 1.8794,-0.08997 z M 14.83125,7.0333063 c 0.102308,-0.092586 0.105487,-0.2301974 0.0078,-0.3381262 -0.07059,-0.078002 -0.217968,-0.082268 -2.841824,-0.082268 -2.5119404,0 -2.7749684,0.00689 -2.8496424,0.074454 -0.102308,0.09259 -0.105491,0.2301975 -0.0078,0.3381262 0.07059,0.078002 0.217971,0.082268 2.8418274,0.082268 2.511941,0 2.774969,-0.00686 2.849642,-0.074454 z"
       style="fill:#ffffff;stroke-width:0.04498604" />
  </g>
</svg>
