<?xml version="1.0" encoding="UTF-8" standalone="no"?>
<svg
   xmlns:dc="http://purl.org/dc/elements/1.1/"
   xmlns:cc="http://creativecommons.org/ns#"
   xmlns:rdf="http://www.w3.org/1999/02/22-rdf-syntax-ns#"
   xmlns:svg="http://www.w3.org/2000/svg"
   xmlns="http://www.w3.org/2000/svg"
   xmlns:sodipodi="http://sodipodi.sourceforge.net/DTD/sodipodi-0.dtd"
   xmlns:inkscape="http://www.inkscape.org/namespaces/inkscape"
   height="24"
   viewBox="0 0 24 24"
   width="24"
   version="1.1"
   id="svg10"
   sodipodi:docname="fuel-m.svg"
   inkscape:version="0.92.3 (2405546, 2018-03-11)">
  <metadata
     id="metadata16">
    <rdf:RDF>
      <cc:Work
         rdf:about="">
        <dc:format>image/svg+xml</dc:format>
        <dc:type
           rdf:resource="http://purl.org/dc/dcmitype/StillImage" />
        <dc:title></dc:title>
      </cc:Work>
    </rdf:RDF>
  </metadata>
  <defs
     id="defs14" />
  <sodipodi:namedview
     pagecolor="#ffffff"
     bordercolor="#666666"
     borderopacity="1"
     objecttolerance="10"
     gridtolerance="10"
     guidetolerance="10"
     inkscape:pageopacity="0"
     inkscape:pageshadow="2"
     inkscape:window-width="1215"
     inkscape:window-height="748"
     id="namedview12"
     showgrid="false"
     inkscape:zoom="9.8333333"
     inkscape:cx="18.754574"
     inkscape:cy="14.435464"
     inkscape:window-x="67"
     inkscape:window-y="27"
     inkscape:window-maximized="0"
     inkscape:current-layer="svg10" />
  <g
     id="g1486"
     transform="matrix(0.78908841,0,0,0.78908841,8.5895275,12.521603)">
    <circle
       r="13.982885"
       cy="-0.66101986"
       cx="4.322041"
       id="path1043"
       style="opacity:1;fill:#ffcc00;fill-opacity:1;stroke:none;stroke-width:0.40122756;stroke-linecap:round;stroke-miterlimit:4;stroke-dasharray:none;stroke-opacity:1" />
    <path
       inkscape:connector-curvature="0"
       id="path1246"
       d="m 3.8008928,-9.0145709 c -4.42429161,0 -4.5531003,0.00526 -4.73367851,0.1855913 -0.18257819,0.1825782 -0.18559139,0.3094856 -0.18559139,7.7039229 v 7.5181935 h -0.3713143 c -0.659517,0 -0.9965815,0.6741223 -0.5569056,1.1138047 0.1815782,0.1815848 0.3093935,0.1855913 5.8474898,0.1855913 5.538096,0 5.6659047,-0.00395 5.847483,-0.1855913 C 10.088052,7.0672591 9.7509938,6.3931368 9.0914767,6.3931368 H 8.7201558 V 3.4230304 0.45279216 h 0.5456228 c 0.32365,0 0.5843069,0.0473024 0.6409316,0.11611137 0.054474,0.0662168 0.1115518,0.85304257 0.1329668,1.83304547 0.04191,1.919183 0.175058,2.4717268 0.754457,3.131632 0.815681,0.9290029 2.282142,0.8719636 2.95787,-0.1150258 C 14.243548,4.700591 14.28939,4.2751453 14.287153,0.45659477 14.285179,-2.7369318 14.270772,-3.0594042 14.112851,-3.4070607 14.008654,-3.6364742 13.199427,-4.5627271 12.065116,-5.7507815 10.02921,-7.8831544 9.9122694,-7.9616081 9.4701265,-7.4909718 9.1709566,-7.1725126 9.2546339,-7.0033685 10.250011,-5.9140703 l 0.859556,0.9407264 0.0427,1.1583967 c 0.0275,0.7473325 0.09276,1.2736396 0.18396,1.4832177 0.07775,0.1786703 0.483531,0.6582013 0.901707,1.0655418 l 0.7603,0.74058907 -0.02743,2.43182593 C 12.94481,4.2088232 12.933099,4.3518556 12.748495,4.5997888 12.392148,5.0784052 11.84461,4.971182 11.553111,4.3656581 11.439217,4.129067 11.351283,3.5485167 11.26283,2.4484488 11.193054,1.5806102 11.093745,0.71956739 11.042028,0.5350484 10.829766,-0.22228406 10.181189,-0.65542705 9.2539826,-0.65897967 l -0.5337939,-0.001974 V -4.6520688 c 0,-3.8673857 -0.00592,-3.9968983 -0.1855848,-4.1767792 C 8.3540191,-9.0094262 8.225217,-9.0144393 3.8009257,-9.0144393 Z m 0,0.7337931 c 1.9926498,0 3.9853326,0.040131 4.0654178,0.1201903 0.1588414,0.1588414 0.1588414,5.1873474 0,5.3461955 -0.1601704,0.1601638 -7.97067203,0.1601638 -8.13084243,0 -0.15883489,-0.1588481 -0.15883489,-5.1873541 0,-5.3461955 0.0800852,-0.080079 2.07276793,-0.1201903 4.06542463,-0.1201903 z m 7.9050072,3.8818724 0.546432,0.5407215 c 0.442999,0.4383799 0.536176,0.5819122 0.492051,0.7577207 -0.03678,0.1464862 0.02434,0.3358144 0.188308,0.5835568 0.160717,0.2428543 0.242697,0.4928994 0.242697,0.7400431 0,0.5747214 -0.310519,0.5175045 -0.952148,-0.1755322 -0.569089,-0.6146817 -0.592201,-0.6868788 -0.548478,-1.7146246 z m -8.977615,3.43958484 h 2.8083047 c 0.3239658,0 0.584774,0.26080816 0.584774,0.58477395 v 0.4216233 c 0,0.3239658 -0.2608082,0.58477395 -0.584774,0.58477395 H 2.728285 c -0.3239724,0 -0.5847805,-0.26080815 -0.5847805,-0.58477395 v -0.4216233 c 0,-0.32396579 0.2608081,-0.58477395 0.5847805,-0.58477395 z"
       style="fill:#000000;stroke-width:0.09281721" />
  </g>
</svg>
