<?xml version="1.0" encoding="UTF-8" standalone="no"?>
<svg
   xmlns:dc="http://purl.org/dc/elements/1.1/"
   xmlns:cc="http://creativecommons.org/ns#"
   xmlns:rdf="http://www.w3.org/1999/02/22-rdf-syntax-ns#"
   xmlns:svg="http://www.w3.org/2000/svg"
   xmlns="http://www.w3.org/2000/svg"
   xmlns:sodipodi="http://sodipodi.sourceforge.net/DTD/sodipodi-0.dtd"
   xmlns:inkscape="http://www.inkscape.org/namespaces/inkscape"
   height="24"
   viewBox="0 0 24 24"
   width="24"
   version="1.1"
   id="svg10"
   sodipodi:docname="hospital-m.svg"
   inkscape:version="0.92.3 (2405546, 2018-03-11)">
  <metadata
     id="metadata16">
    <rdf:RDF>
      <cc:Work
         rdf:about="">
        <dc:format>image/svg+xml</dc:format>
        <dc:type
           rdf:resource="http://purl.org/dc/dcmitype/StillImage" />
        <dc:title></dc:title>
      </cc:Work>
    </rdf:RDF>
  </metadata>
  <defs
     id="defs14" />
  <sodipodi:namedview
     pagecolor="#ffffff"
     bordercolor="#666666"
     borderopacity="1"
     objecttolerance="10"
     gridtolerance="10"
     guidetolerance="10"
     inkscape:pageopacity="0"
     inkscape:pageshadow="2"
     inkscape:window-width="1215"
     inkscape:window-height="748"
     id="namedview12"
     showgrid="false"
     inkscape:zoom="9.8333333"
     inkscape:cx="11.401319"
     inkscape:cy="7.0898766"
     inkscape:window-x="67"
     inkscape:window-y="27"
     inkscape:window-maximized="0"
     inkscape:current-layer="svg10" />
  <path
     style="fill:#ffffff;stroke-width:0.02739519"
     d="M 8.7658361,19.018039 C 8.5755336,18.974467 8.4793638,18.921969 8.3471963,18.789396 8.1406547,18.582221 8.0474227,18.257848 8.1134254,17.976049 c 0.1572872,-0.671594 0.9591623,-0.908816 1.4475709,-0.428245 0.2456618,0.241722 0.3247928,0.657813 0.1858819,0.977449 -0.1589828,0.365812 -0.5899335,0.582281 -0.9810421,0.492786 z m 5.6586869,4.21e-4 c -0.396884,-0.08671 -0.66315,-0.425732 -0.663921,-0.845324 -5.6e-4,-0.350227 0.175076,-0.636752 0.490746,-0.800201 0.186219,-0.09643 0.534961,-0.09882 0.722902,-0.0051 0.531788,0.265584 0.670496,0.975513 0.272286,1.393602 -0.139665,0.146633 -0.290266,0.229676 -0.479779,0.264557 -0.08879,0.01634 -0.168366,0.02865 -0.176845,0.0274 -0.0085,-0.0011 -0.0829,-0.01707 -0.165389,-0.03507 z M 7.0245799,16.344765 C 6.9439387,16.301527 6.8869508,16.243231 6.8425648,16.15857 6.7811673,16.041452 5.0384899,9.0351138 5.0384899,8.9053713 c 0,-0.1165005 0.087189,-0.2729766 0.1938615,-0.3479354 0.1076915,-0.075663 0.1319271,-0.07889 5.4968446,-0.7318468 2.963768,-0.3607122 5.395112,-0.6623743 5.40298,-0.670357 0.0079,-0.008 0.0617,-0.3220697 0.119627,-0.6979814 0.05793,-0.3759117 0.124815,-0.7369019 0.148659,-0.8022043 0.07213,-0.1975924 0.140147,-0.225614 1.190208,-0.4903754 0.886467,-0.223509 0.955653,-0.2369496 1.058813,-0.205609 0.301782,0.091668 0.412405,0.4665578 0.207498,0.7031784 -0.09853,0.1137772 -0.144585,0.1296914 -1.003571,0.3468007 -0.366358,0.092598 -0.669231,0.171528 -0.673048,0.1754032 -0.0039,0.00397 -0.288498,1.8246894 -0.632607,4.0462477 -0.69147,4.464088 -0.64555,4.2346 -0.870335,4.349528 l -0.12139,0.06206 h -4.102478 c -2.2563622,0 -4.1027358,0.0093 -4.1030548,0.02071 -4.198e-4,0.01135 0.045214,0.209988 0.1011332,0.441355 l 0.1017208,0.420664 h 4.4432858 c 4.898148,0 4.557335,-0.01282 4.699782,0.176556 0.16206,0.215418 0.09157,0.521415 -0.148379,0.644094 l -0.12139,0.06206 H 11.784315 7.1419802 Z M 7.6963691,11.449346 C 7.5171126,10.178724 7.367335,9.135212 7.3635354,9.1304349 7.353575,9.1179528 6.0479643,9.278781 6.0325366,9.2944285 c -0.00711,0.00721 0.2346382,1.0147525 0.5371874,2.2390165 l 0.5500912,2.225933 0.4512299,1.02e-4 0.4512412,1.08e-4 z m 2.102718,2.192987 C 9.7979601,13.401889 9.587084,8.8729867 9.5766534,8.8624112 9.5663577,8.8519145 8.2439702,9.0096169 8.2334109,9.0225809 c -0.00392,0.00453 0.6574302,4.6973661 0.6665346,4.7300971 0.00113,0.004 0.203934,0.0069 0.4508327,0.0069 h 0.4489189 l -5.59e-4,-0.117232 z m 1.7966659,0 c 1.57e-4,-0.06448 0.04852,-1.227834 0.107378,-2.585244 0.05884,-1.3573999 0.104564,-2.4699692 0.101625,-2.4723691 -0.0081,-0.00658 -1.337321,0.1578322 -1.345855,0.1664843 -0.0039,0.00397 0.0418,1.0976082 0.102006,2.4299478 0.06017,1.332346 0.10941,2.457538 0.10941,2.500431 v 0.07798 h 0.462516 0.462517 l 4.14e-4,-0.117238 z m 1.768451,0.09655 c 1.52e-4,-0.01135 0.151227,-1.234081 0.33557,-2.717104 0.328492,-2.6426825 0.334037,-2.6964166 0.278465,-2.6965924 -0.0621,-1.589e-4 -1.277005,0.141793 -1.287485,0.1504735 -0.0076,0.0063 -0.224555,4.9945569 -0.224689,5.1666699 l -1.06e-4,0.117238 h 0.448912 c 0.246905,0 0.449099,-0.0093 0.449322,-0.02071 z m 1.75119,-0.05515 c 0.04823,-0.249335 0.728614,-5.5561813 0.714222,-5.5707794 -0.02754,-0.027914 -0.892158,0.081257 -0.903843,0.1141289 -0.0057,0.01617 -0.157348,1.2272202 -0.336913,2.6912765 -0.179564,1.464068 -0.333326,2.702278 -0.341692,2.751587 l -0.01522,0.08965 h 0.434381 0.434382 z"
     id="path1099"
     inkscape:connector-curvature="0" />
  <g
     id="g4215"
     transform="matrix(0.0521862,0,0,0.0521862,11.511749,11.538285)">
    <circle
       r="211.62695"
       cy="8.8474579"
       cx="9.3559322"
       id="path1043"
       style="opacity:1;fill:#c83737;fill-opacity:1;stroke:none;stroke-width:6.07246351;stroke-linecap:round;stroke-miterlimit:4;stroke-dasharray:none;stroke-opacity:1" />
    <g
       transform="matrix(3.2587926,0,0,3.2587926,703.08833,-577.09099)"
       id="g817">
      <rect
         style="opacity:1;fill:#ffffff;fill-opacity:1;stroke:none;stroke-width:1.42976665;stroke-linecap:round;stroke-miterlimit:4;stroke-dasharray:none;stroke-opacity:1"
         id="rect1276-3"
         width="85.04464"
         height="17.008928"
         x="-255.4025"
         y="171.29784"
         ry="1.9234157" />
      <rect
         ry="1.9234157"
         y="204.3757"
         x="137.28"
         height="17.008928"
         width="85.04464"
         id="rect1278-6"
         style="opacity:1;fill:#ffffff;fill-opacity:1;stroke:none;stroke-width:1.42976665;stroke-linecap:round;stroke-miterlimit:4;stroke-dasharray:none;stroke-opacity:1"
         transform="rotate(90.000002)" />
    </g>
  </g>
</svg>
