<?xml version="1.0" encoding="UTF-8" standalone="no"?>
<svg
   xmlns:dc="http://purl.org/dc/elements/1.1/"
   xmlns:cc="http://creativecommons.org/ns#"
   xmlns:rdf="http://www.w3.org/1999/02/22-rdf-syntax-ns#"
   xmlns:svg="http://www.w3.org/2000/svg"
   xmlns="http://www.w3.org/2000/svg"
   xmlns:sodipodi="http://sodipodi.sourceforge.net/DTD/sodipodi-0.dtd"
   xmlns:inkscape="http://www.inkscape.org/namespaces/inkscape"
   height="16"
   viewBox="0 0 16 16"
   width="16"
   version="1.1"
   id="svg10"
   sodipodi:docname="muslim-s.svg"
   inkscape:version="0.92.3 (2405546, 2018-03-11)">
  <metadata
     id="metadata16">
    <rdf:RDF>
      <cc:Work
         rdf:about="">
        <dc:format>image/svg+xml</dc:format>
        <dc:type
           rdf:resource="http://purl.org/dc/dcmitype/StillImage" />
        <dc:title></dc:title>
      </cc:Work>
    </rdf:RDF>
  </metadata>
  <defs
     id="defs14" />
  <sodipodi:namedview
     pagecolor="#ffffff"
     bordercolor="#666666"
     borderopacity="1"
     objecttolerance="10"
     gridtolerance="10"
     guidetolerance="10"
     inkscape:pageopacity="0"
     inkscape:pageshadow="2"
     inkscape:window-width="1215"
     inkscape:window-height="748"
     id="namedview12"
     showgrid="false"
     inkscape:zoom="13.906433"
     inkscape:cx="4.4938296"
     inkscape:cy="12.131"
     inkscape:window-x="208"
     inkscape:window-y="27"
     inkscape:window-maximized="0"
     inkscape:current-layer="svg10" />
  <g
     id="g846"
     transform="matrix(0.13064982,0,0,0.13064982,35.812756,-15.491139)">
    <circle
       r="55.992966"
       cy="179.80231"
       cx="-212.88017"
       id="path1043"
       style="opacity:1;fill:#4d4d4d;fill-opacity:1;stroke:none;stroke-width:1.60667264;stroke-linecap:round;stroke-miterlimit:4;stroke-dasharray:none;stroke-opacity:1" />
    <g
       style="fill:#ffffff"
       transform="matrix(0.56027598,0,0,0.56027598,-14.588229,86.548184)"
       id="g3635">
      <g
         id="g836">
        <path
           sodipodi:nodetypes="ccccccccccc"
           inkscape:connector-curvature="0"
           id="path3550"
           d="m -294.57551,189.29893 -11.20918,-0.38145 -10.07525,-0.38146 c 6.85201,-15.3168 -7.5659,-27.61817 -15.36953,-32.65272 -22.34559,-20.93732 2.05268,-13.69016 -19.45723,0 -13.74335,10.62924 -21.15338,18.81017 -15.36954,32.65272 l -10.07523,0.38146 -10.07527,0.38145 0.13872,38.62781 c 0,0 -81.23284,0.44755 91.22296,-0.69289 0.61692,-23.32491 -0.0498,-19.01842 0.26955,-37.93492 z"
           style="fill:#ffffff;stroke-width:1.31155515" />
        <rect
           y="114.60445"
           x="-407.44958"
           height="113.32229"
           width="21.381563"
           id="rect3552"
           style="opacity:1;fill:#ffffff;fill-opacity:1;stroke:none;stroke-width:1.38896418;stroke-linecap:round;stroke-miterlimit:4;stroke-dasharray:none;stroke-opacity:1" />
        <path
           transform="matrix(0.89085738,-0.3315536,0.28569164,1.0338663,-87.365334,-125.00273)"
           inkscape:transform-center-y="-3.7489122"
           inkscape:transform-center-x="-0.14934351"
           d="m -371.17649,112.8897 -22.31942,-6.96864 17.19473,-15.844864 z"
           inkscape:randomized="0"
           inkscape:rounded="0"
           inkscape:flatsided="true"
           sodipodi:arg2="1.8734291"
           sodipodi:arg1="0.8262316"
           sodipodi:r2="7.1840339"
           sodipodi:r1="13.499611"
           sodipodi:cy="102.96232"
           sodipodi:cx="-380.32452"
           sodipodi:sides="3"
           id="path3554"
           style="opacity:1;fill:#ffffff;fill-opacity:1;stroke:none;stroke-width:1.5;stroke-linecap:round;stroke-miterlimit:4;stroke-dasharray:none;stroke-opacity:1"
           sodipodi:type="star" />
        <path
           sodipodi:nodetypes="ccccc"
           inkscape:connector-curvature="0"
           id="path3558"
           d="m -412.93142,139.54603 32.33962,0.53454 -3.47451,14.96709 -25.65787,-0.26727 z"
           style="fill:#ffffff;stroke:#000000;stroke-width:0.26458332px;stroke-linecap:butt;stroke-linejoin:miter;stroke-opacity:1" />
        <path
           inkscape:connector-curvature="0"
           id="path3628"
           d="m -338.54158,144.70163 c -3.934,0.25734 -7.52779,-0.53026 -10.87768,-2.38392 -5.02161,-2.77871 -8.1708,-6.8029 -9.58021,-12.24202 -1.40939,-5.43913 -0.61078,-10.48627 2.42945,-15.354 4.38739,-7.02461 12.47612,-10.39076 20.72597,-8.62519 0.89556,0.19156 1.94129,0.49494 2.32381,0.67395 l 0.69547,0.32547 -1.0196,-0.1557 c -1.8254,-0.27851 -3.85423,-0.13377 -6.04698,0.43107 -4.33433,1.11797 -7.62804,3.70516 -9.75236,7.66473 -1.13638,2.11819 -1.73004,4.12497 -1.89132,6.3935 -0.11285,1.58858 -0.0551,2.00039 0.67849,4.83144 0.73359,2.83108 0.88303,3.21915 1.75321,4.55295 2.93855,4.50415 8.1294,7.27609 13.48054,7.19862 2.04488,-0.0297 5.41417,-0.95229 7.23519,-1.98135 3.53965,-2.00034 6.28693,-5.41372 7.33812,-9.11739 0.15793,-0.55697 0.33705,-0.9834 0.39773,-0.94768 0.0608,0.0356 0.0224,0.81567 -0.0854,1.73321 -0.71535,6.09477 -4.71148,11.86073 -10.28276,14.83682 -1.74221,0.93063 -5.59298,2.03924 -7.52164,2.16544 z m 2.74548,-14.47538 c -0.0174,-0.61028 -0.44559,-5.27052 -0.5553,-6.05533 -0.0683,-0.48869 -0.40306,-0.67956 -3.04743,-1.73841 -1.63386,-0.6542 -3.0579,-1.23581 -3.16447,-1.29251 -0.10662,-0.0568 1.27357,-0.65106 3.06694,-1.32085 1.79337,-0.66979 3.28604,-1.26074 3.317,-1.31325 0.0309,-0.0526 -0.01,-1.73595 -0.0899,-3.74089 l -0.14623,-3.64541 1.22442,1.49389 c 0.6734,0.8216 1.71605,2.12187 2.31696,2.88942 l 1.09251,1.39556 2.76317,-0.85907 c 1.51974,-0.47254 3.06427,-0.9922 3.43229,-1.15489 l 0.66912,-0.29587 -0.71892,1.32999 c -0.39539,0.73152 -1.19515,2.17347 -1.77722,3.2044 l -1.05834,1.87443 1.83682,2.5999 c 1.01028,1.42991 1.80956,2.64629 1.77618,2.70303 -0.0334,0.0568 -1.54339,-0.23416 -3.35552,-0.64627 l -3.2948,-0.74938 -1.92617,2.647 c -1.05938,1.45587 -2.02056,2.76855 -2.13595,2.91705 -0.16367,0.211 -0.213,0.15794 -0.22495,-0.24264 z"
           style="fill:#ffffff;stroke-width:0.20626216" />
      </g>
    </g>
  </g>
</svg>
