<?xml version="1.0" encoding="UTF-8" standalone="no"?>
<svg
   xmlns:dc="http://purl.org/dc/elements/1.1/"
   xmlns:cc="http://creativecommons.org/ns#"
   xmlns:rdf="http://www.w3.org/1999/02/22-rdf-syntax-ns#"
   xmlns:svg="http://www.w3.org/2000/svg"
   xmlns="http://www.w3.org/2000/svg"
   xmlns:sodipodi="http://sodipodi.sourceforge.net/DTD/sodipodi-0.dtd"
   xmlns:inkscape="http://www.inkscape.org/namespaces/inkscape"
   height="24"
   viewBox="0 0 24 24"
   width="24"
   version="1.1"
   id="svg10"
   sodipodi:docname="police-m.svg"
   inkscape:version="0.92.3 (2405546, 2018-03-11)">
  <metadata
     id="metadata16">
    <rdf:RDF>
      <cc:Work
         rdf:about="">
        <dc:format>image/svg+xml</dc:format>
        <dc:type
           rdf:resource="http://purl.org/dc/dcmitype/StillImage" />
        <dc:title></dc:title>
      </cc:Work>
    </rdf:RDF>
  </metadata>
  <defs
     id="defs14" />
  <sodipodi:namedview
     pagecolor="#ffffff"
     bordercolor="#666666"
     borderopacity="1"
     objecttolerance="10"
     gridtolerance="10"
     guidetolerance="10"
     inkscape:pageopacity="0"
     inkscape:pageshadow="2"
     inkscape:window-width="1215"
     inkscape:window-height="748"
     id="namedview12"
     showgrid="false"
     inkscape:zoom="14.481547"
     inkscape:cx="6.845793"
     inkscape:cy="13.241488"
     inkscape:window-x="177"
     inkscape:window-y="54"
     inkscape:window-maximized="0"
     inkscape:current-layer="svg10" />
  <g
     id="g4941"
     transform="matrix(0.05373654,0,0,0.05373654,11.269676,11.432919)">
    <circle
       r="211.62695"
       cy="10.552986"
       cx="13.590832"
       id="path1043"
       style="opacity:1;fill:#000000;fill-opacity:1;stroke:none;stroke-width:6.07246351;stroke-linecap:round;stroke-miterlimit:4;stroke-dasharray:none;stroke-opacity:1" />
    <path
       inkscape:connector-curvature="0"
       id="path2643"
       d="m 9.3281489,136.73638 c -1.94347,-2.00443 -4.63949,-4.3669 -5.99127,-5.24995 -3.60124999,-2.35241 -16.7260399,-8.28506 -22.4844499,-10.16338 -6.0076,-1.95953 -9.24227,-3.16818 -13.92601,-5.2032 -1.94339,-0.84442 -4.38115,-1.87385 -5.41727,-2.28755 -1.03608,-0.41379 -5.24508,-2.37487 -9.35331,-4.35795 -7.2093,-3.48008 -10.91146,-5.8091 -19.10918,-12.022037 -10.18156,-7.71628 -20.24179,-17.43719 -24.06459,-23.25267 -7.33531,-11.15898 -11.093299,-23.18264 -11.192579,-35.81076 -0.0488,-6.12873 0.87118,-11.84251 3.310976,-20.5773 1.355003,-4.85129 2.406573,-8.1828998 7.077203,-22.4222298 4.15669,-12.6725702 5.47404,-21.0039702 4.73654,-29.9563502 -0.76089,-9.23743 -3.51904,-21.30686 -6.70473,-29.3396 -0.71834,-1.81119 -1.67803,-4.22725 -2.13263,-5.36901 -0.45442,-1.14183 -2.01895,-4.34823 -3.476263,-7.12539 l -2.649566,-5.04938 15.875229,-15.53045 c 8.73135,-8.541733 17.06203,-16.702493 18.51258,-18.134973 1.58623,-1.56642 2.83272,-2.48636 3.12752,-2.30819 0.26948,0.16327 1.87778,1.22543 3.5737,2.36088 10.22539,6.84624 21.16766,10.71855 33.7062,11.92815 12.32372,1.18889 24.8446099,-0.9083 36.7316799,-6.1522 l 3.2675901,-1.44151 3.17582,1.44843 c 12.69068,5.78815 24.56867,7.57727 39.34194,5.92584 13.18764,-1.47417 23.67598,-5.72719 34.54934,-14.00976 l 2.55069,-1.94291 7.01571,6.88309 c 3.858711,3.78565 12.190601,11.97025 18.515341,18.187993 l 11.49967,11.30495 -1.67902,2.87724 c -6.59891,11.30823 -11.72644,25.75544 -13.78341,38.83559 -1.52542,9.69993 -1.65029,13.0809 -0.71856,19.45606 1.17826,8.06256 2.6191,13.4872802 7.52972,28.3497502 5.25139,15.8939698 7.00256,22.7924698 7.33399,28.8913798 0.73447,13.51824 -3.48983,27.6166 -11.88892,39.67843 -5.88499,8.45133 -28.766251,27.630987 -39.661571,33.245437 -3.67363,1.89306 -6.87084,3.1841 -20.84723,8.41833 -7.10782,2.66189 -8.95873,3.42184 -18.08308,7.42432 -10.38727,4.55648 -12.55597,5.59147 -14.97898,7.14814 -2.80819,1.8042 -8.57753,7.12744 -8.93065,8.24009 -0.14173,0.44572 -0.38498,0.79601 -0.54119,0.77866 -0.15609,-0.0151 -1.87381,-1.67153 -3.8172101,-3.67601 z M -0.23304109,47.373993 V 24.142033 L 14.004779,23.933783 c 13.28308,-0.19427 14.56351,-0.27931 19.09471,-1.26921 5.75882,-1.25805 9.99722,-3.12378 13.49151,-5.939 7.68442,-6.19101 11.86613,-14.6575698 13.03,-26.3816698 0.46635,-4.6967402 -0.1697,-11.8008502 -1.41109,-15.7655002 -2.56584,-8.1939 -8.3102,-14.81186 -16.38712,-18.87935 -8.10777,-4.08298 -16.61923,-4.92843 -47.6677801,-4.73484 l -20.3694599,0.12662 -0.10659,59.23767 c -0.0586,32.5807 -0.0151,59.47154 0.0907,59.75731 0.15232,0.40018 3.16029,0.5195 13.09758,0.5195 h 12.89985991 z m -0.4159,-59.70089 v -17.25169 l 9.24937999,0.0113 c 10.1220301,0.0113 13.4471801,0.45059 17.2071701,2.28998 5.40544,2.64464 7.54231,7.27925 7.11681,15.43517 -0.27251,5.2305602 -1.32979,8.0942402 -4.10963,11.13574017 C 25.002719,3.4646532 18.851349,4.9239632 5.0669589,4.9274032 l -5.71589999,0.001 z"
       style="fill:#cccccc;stroke-width:0.41570303" />
  </g>
</svg>
