<?xml version="1.0" encoding="UTF-8" standalone="no"?>
<svg
   xmlns:dc="http://purl.org/dc/elements/1.1/"
   xmlns:cc="http://creativecommons.org/ns#"
   xmlns:rdf="http://www.w3.org/1999/02/22-rdf-syntax-ns#"
   xmlns:svg="http://www.w3.org/2000/svg"
   xmlns="http://www.w3.org/2000/svg"
   xmlns:sodipodi="http://sodipodi.sourceforge.net/DTD/sodipodi-0.dtd"
   xmlns:inkscape="http://www.inkscape.org/namespaces/inkscape"
   height="24"
   viewBox="0 0 24 24"
   width="24"
   version="1.1"
   id="svg10"
   sodipodi:docname="postbox-m.svg"
   inkscape:version="0.92.3 (2405546, 2018-03-11)">
  <metadata
     id="metadata16">
    <rdf:RDF>
      <cc:Work
         rdf:about="">
        <dc:format>image/svg+xml</dc:format>
        <dc:type
           rdf:resource="http://purl.org/dc/dcmitype/StillImage" />
        <dc:title></dc:title>
      </cc:Work>
    </rdf:RDF>
  </metadata>
  <defs
     id="defs14" />
  <sodipodi:namedview
     pagecolor="#ffffff"
     bordercolor="#666666"
     borderopacity="1"
     objecttolerance="10"
     gridtolerance="10"
     guidetolerance="10"
     inkscape:pageopacity="0"
     inkscape:pageshadow="2"
     inkscape:window-width="1215"
     inkscape:window-height="748"
     id="namedview12"
     showgrid="false"
     inkscape:zoom="14.481547"
     inkscape:cx="19.511294"
     inkscape:cy="9.9409921"
     inkscape:window-x="177"
     inkscape:window-y="54"
     inkscape:window-maximized="0"
     inkscape:current-layer="svg10" />
  <g
     id="g5590"
     transform="matrix(0.0538997,0,0,0.0538997,11.616638,11.212593)">
    <circle
       r="211.62695"
       cy="14.608738"
       cx="7.1124997"
       id="path1043"
       style="opacity:1;fill:#3771c8;fill-opacity:1;stroke:none;stroke-width:6.07246351;stroke-linecap:round;stroke-miterlimit:4;stroke-dasharray:none;stroke-opacity:1" />
    <path
       sodipodi:nodetypes="ccssccsccscccsccccscccscccssssss"
       inkscape:connector-curvature="0"
       id="path2886"
       d="m -83.554723,93.099035 c 1.46158,-1.39249 69.34424,-58.5086 73.14626,-61.54484 1.3244598,-1.05767 2.1426498,-0.52528 8.0958598,5.26805 8.90789,8.66865 9.78153,8.66865 18.6894202,0 5.95317,-5.79333 6.77137,-6.32572 8.09583,-5.26805 3.80205,3.03624 71.68471,60.15235 73.14629,61.54484 1.62724,1.55036 -0.28838,1.58389 -90.5868102,1.58389 -90.2983998,0 -92.2140898,-0.034 -90.5868498,-1.58389 z m -11.83034,-7.82846 c -0.23546,-0.6181 -0.3307,-32.70191 -0.21127,-71.29746 l 0.2177,-70.17377 38.94172,38.987 38.94176,38.98692 -38.04991,32.02968 c -20.9275,17.61634 -38.35627,32.15603 -38.73063,32.3105 -0.37455,0.15459 -0.8736,-0.22488 -1.10948,-0.84287 z m 167.31939,-29.50197 c -19.70245,-16.68416 -36.86117,-31.16447 -38.13052,-32.17856 l -2.30782,-1.84377 39.18845,-39.1807 39.188483,-39.18069 -0.21505,71.15368 c -0.14098,46.55777 -0.50646,71.22475 -1.058,71.35922 -0.46356,0.11339 -16.963093,-13.4451 -36.665503,-30.12918 z m -111.89598,-73.40308 c -25.61159,-25.61476 -46.56661,-46.85548 -46.56661,-47.20165 0,-0.3462 42.10216,-0.62933 93.5603898,-0.62933 51.4581502,0 93.5603532,0.28309 93.5603532,0.62933 0,0.69139 -92.8706232,93.77394 -93.5603532,93.77394 -0.23471,0 -21.3821098,-20.9575601 -46.9937798,-46.57229 z"
       style="fill:#ffffff;stroke-width:0.84288603" />
  </g>
</svg>
