<?xml version="1.0" encoding="UTF-8" standalone="no"?>
<svg
   xmlns:dc="http://purl.org/dc/elements/1.1/"
   xmlns:cc="http://creativecommons.org/ns#"
   xmlns:rdf="http://www.w3.org/1999/02/22-rdf-syntax-ns#"
   xmlns:svg="http://www.w3.org/2000/svg"
   xmlns="http://www.w3.org/2000/svg"
   xmlns:sodipodi="http://sodipodi.sourceforge.net/DTD/sodipodi-0.dtd"
   xmlns:inkscape="http://www.inkscape.org/namespaces/inkscape"
   height="24"
   viewBox="0 0 24 24"
   width="24"
   version="1.1"
   id="svg10"
   sodipodi:docname="restaurant-m.svg"
   inkscape:version="0.92.3 (2405546, 2018-03-11)">
  <metadata
     id="metadata16">
    <rdf:RDF>
      <cc:Work
         rdf:about="">
        <dc:format>image/svg+xml</dc:format>
        <dc:type
           rdf:resource="http://purl.org/dc/dcmitype/StillImage" />
        <dc:title></dc:title>
      </cc:Work>
    </rdf:RDF>
  </metadata>
  <defs
     id="defs14" />
  <sodipodi:namedview
     pagecolor="#ffffff"
     bordercolor="#666666"
     borderopacity="1"
     objecttolerance="10"
     gridtolerance="10"
     guidetolerance="10"
     inkscape:pageopacity="0"
     inkscape:pageshadow="2"
     inkscape:window-width="1215"
     inkscape:window-height="748"
     id="namedview12"
     showgrid="false"
     inkscape:zoom="9.8333333"
     inkscape:cx="8.8921189"
     inkscape:cy="1.494819"
     inkscape:window-x="67"
     inkscape:window-y="27"
     inkscape:window-maximized="0"
     inkscape:current-layer="svg10" />
  <g
     id="g1476"
     transform="matrix(0.97759253,0,0,0.97759253,0.91509533,0.91509533)">
    <circle
       r="11.346096"
       cy="11.338983"
       cx="11.338983"
       id="path1043"
       style="opacity:1;fill:#b53b15;fill-opacity:1;stroke:none;stroke-width:0.32556704;stroke-linecap:round;stroke-miterlimit:4;stroke-dasharray:none;stroke-opacity:1" />
    <path
       sodipodi:nodetypes="cccsssccccsscccsccccccccccccccccccccccccccscsccsssscccccssccccscccc"
       inkscape:connector-curvature="0"
       id="path1014"
       d="M 5.2332287,16.255337 C 4.3178199,15.826085 3.5984783,14.843916 3.4601096,13.834381 L 3.3953807,13.36237 H 11.27617 c 8.822525,0 8.119683,-0.06879 7.893273,0.772769 -0.245365,0.912082 -0.832017,1.672879 -1.618072,2.098379 -0.414161,0.224199 -0.500974,0.227818 -6.092126,0.254531 l -5.6719839,0.02712 z M 18.335479,14.734755 c 0.05982,-0.11174 0.108726,-0.253548 0.108726,-0.315111 0,-0.07805 -1.95762,-0.111948 -6.459749,-0.111948 H 5.5246979 v 0.315111 0.315112 h 6.3510231 c 6.171568,0 6.354094,-0.0057 6.459758,-0.203164 z M 4.1133993,12.705896 c 0.1260655,-0.406035 0.4475652,-0.781378 0.8211408,-0.958641 0.3782249,-0.179483 1.2826818,-0.227713 1.5143641,-0.0807 0.083155,0.05273 0.3260637,-0.0094 0.6217568,-0.159167 0.2669383,-0.135137 0.6545749,-0.244666 0.8614145,-0.2434 0.8217172,0.0047 1.6068366,0.61072 1.755562,1.354328 l 0.064823,0.323956 H 6.8962614 4.0400619 Z M 10.109406,12.543544 C 9.9764608,11.712113 8.9045686,10.848837 7.9989117,10.843791 l -0.4142935,-0.0019 0.3617733,-0.274489 C 8.1453691,10.416438 8.5678837,10.171347 8.8853106,10.022754 9.3907915,9.7861388 9.605238,9.7517522 10.612165,9.7458085 l 1.149699,-0.00661 0.426408,-0.537212 c 0.559683,-0.705139 0.915362,-0.9208045 1.376024,-0.834389 0.445127,0.083533 0.923951,0.477331 1.101497,0.9059404 0.12633,0.3049911 0.09128,0.435857 -0.53502,1.9978281 l -0.670204,1.671461 H 11.81686 10.173161 Z m 3.818222,0.358372 c 0,-0.09587 0.866064,-2.121116 0.940204,-2.19863 0.04507,-0.04715 0.242257,0.101573 0.438163,0.330449 0.248323,0.290108 0.498819,0.454529 0.82717,0.542948 0.259038,0.06974 0.602102,0.220192 0.762374,0.334313 0.280678,0.199866 0.60334,0.692392 0.60334,0.920974 0,0.07267 -0.608915,0.110257 -1.78563,0.110257 -0.982084,0 -1.785621,-0.01814 -1.785621,-0.04035 z M 6.4700238,10.967144 c 0,-0.743712 0.7587648,-1.7123869 1.6247339,-2.0742074 0.6886686,-0.2877461 2.0152813,-0.1555384 2.5596563,0.2550792 0.225332,0.1699678 0.205894,0.1764596 -0.563794,0.1881769 -0.669987,0.010205 -0.9061767,0.065768 -1.4803649,0.3484682 -0.3757585,0.184983 -0.9816024,0.6154731 -1.3463239,0.9566561 -0.3647121,0.341173 -0.6925429,0.62032 -0.728517,0.62032 -0.036003,0 -0.06539,-0.132519 -0.06539,-0.294493 z M 14.566299,8.4639775 C 14.368749,8.2668708 14.096963,8.0779568 13.962336,8.0441655 13.708703,7.980476 13.645438,7.8523978 13.81568,7.7471778 c 0.05396,-0.033357 0.0738,-0.2133881 0.04403,-0.4000815 -0.08249,-0.5176802 0.115274,-0.9037576 0.557613,-1.0885799 0.465926,-0.1946782 0.665688,-0.1232685 1.409305,0.5037611 0.594202,0.5010303 0.736918,0.9261907 0.478588,1.4257374 -0.163419,0.316 -0.486847,0.4936219 -1.064626,0.5846771 -0.254266,0.040066 -0.384452,-0.01956 -0.674286,-0.3087145 z"
       style="fill:#ffffff;fill-opacity:1;stroke-width:0.10503671" />
  </g>
</svg>
