<?xml version="1.0" encoding="UTF-8" standalone="no"?>
<svg
   xmlns:dc="http://purl.org/dc/elements/1.1/"
   xmlns:cc="http://creativecommons.org/ns#"
   xmlns:rdf="http://www.w3.org/1999/02/22-rdf-syntax-ns#"
   xmlns:svg="http://www.w3.org/2000/svg"
   xmlns="http://www.w3.org/2000/svg"
   xmlns:sodipodi="http://sodipodi.sourceforge.net/DTD/sodipodi-0.dtd"
   xmlns:inkscape="http://www.inkscape.org/namespaces/inkscape"
   height="24"
   viewBox="0 0 24 24"
   width="24"
   version="1.1"
   id="svg10"
   sodipodi:docname="shop-m.svg"
   inkscape:version="0.92.3 (2405546, 2018-03-11)">
  <metadata
     id="metadata16">
    <rdf:RDF>
      <cc:Work
         rdf:about="">
        <dc:format>image/svg+xml</dc:format>
        <dc:type
           rdf:resource="http://purl.org/dc/dcmitype/StillImage" />
        <dc:title></dc:title>
      </cc:Work>
    </rdf:RDF>
  </metadata>
  <defs
     id="defs14" />
  <sodipodi:namedview
     pagecolor="#ffffff"
     bordercolor="#666666"
     borderopacity="1"
     objecttolerance="10"
     gridtolerance="10"
     guidetolerance="10"
     inkscape:pageopacity="0"
     inkscape:pageshadow="2"
     inkscape:window-width="1215"
     inkscape:window-height="748"
     id="namedview12"
     showgrid="false"
     inkscape:zoom="16"
     inkscape:cx="4.3872143"
     inkscape:cy="17.314086"
     inkscape:window-x="177"
     inkscape:window-y="54"
     inkscape:window-maximized="0"
     inkscape:current-layer="svg10" />
  <g
     id="g6250"
     transform="matrix(0.90147009,0,0,0.90147009,1.9155651,0.44914933)">
    <circle
       r="12.615064"
       cy="12.813349"
       cx="11.186655"
       id="path1043"
       style="opacity:1;fill:#d871c8;fill-opacity:1;stroke:none;stroke-width:0.36197901;stroke-linecap:round;stroke-miterlimit:4;stroke-dasharray:none;stroke-opacity:1" />
    <path
       inkscape:connector-curvature="0"
       id="path3164"
       d="m 5.6730274,20.768594 c 0.0045,-0.045 0.06905,-0.984706 0.143351,-2.088228 0.0743,-1.103526 0.256607,-3.798073 0.405116,-5.987883 0.148513,-2.189811 0.270018,-3.9939146 0.270018,-4.0091177 0,-0.026931 0.01719,-0.027728 0.655515,-0.031347 l 0.655519,-0.00373 0.04946,-0.1422976 c 0.02719,-0.078267 0.05781,-0.1679114 0.06803,-0.1992154 0.01021,-0.031311 0.03584,-0.101745 0.05696,-0.1565342 0.0211,-0.054778 0.05179,-0.1348227 0.06816,-0.1778657 0.0164,-0.04305 0.03823,-0.097477 0.04856,-0.1209589 0.01035,-0.023492 0.04068,-0.097119 0.06743,-0.1636435 0.04823,-0.1199526 0.209847,-0.4881613 0.235598,-0.5367679 0.0074,-0.013936 0.06586,-0.1309676 0.129965,-0.2601001 0.0641,-0.129136 0.134787,-0.2668111 0.15707,-0.3059447 0.0223,-0.03913 0.04882,-0.087208 0.05896,-0.1068381 0.04209,-0.081482 0.188786,-0.3222084 0.212938,-0.3494329 0.01433,-0.01618 0.02606,-0.03475 0.02606,-0.041345 0,-0.00659 0.01586,-0.032759 0.03526,-0.058174 0.01937,-0.025411 0.06512,-0.090049 0.101644,-0.1436405 0.03652,-0.053591 0.09611,-0.1326581 0.132412,-0.1757047 0.0363,-0.043043 0.08256,-0.1006736 0.102809,-0.1280682 0.0526,-0.071187 0.336771,-0.3525929 0.384556,-0.38082 0.02212,-0.013031 0.04021,-0.027909 0.04021,-0.032976 0,-0.00507 0.02722,-0.027402 0.06048,-0.04958 0.03327,-0.022189 0.07329,-0.051358 0.08894,-0.064801 0.04592,-0.039463 0.3641356,-0.1975428 0.3976376,-0.1975428 0.01687,0 0.0373,-0.00662 0.04539,-0.014733 0.01759,-0.017592 0.124047,-0.038113 0.290785,-0.056099 0.155966,-0.016832 0.447508,0.014841 0.526651,0.057189 0.02498,0.013321 0.0465,0.012271 0.104108,-0.00536 0.09179,-0.028053 0.205069,-0.049179 0.314549,-0.058684 0.128923,-0.011185 0.408892,0.026316 0.505306,0.067734 0.180059,0.077315 0.266543,0.1175997 0.308543,0.1437201 0.139076,0.086484 0.298528,0.2163911 0.438375,0.3571431 0.193909,0.1951646 0.241853,0.251713 0.392092,0.4624644 0.103989,0.1458704 0.212677,0.3098034 0.212677,0.320775 0,0.00463 0.01604,0.029393 0.03558,0.05505 0.01958,0.025664 0.03558,0.052617 0.03558,0.059922 0,0.00731 0.01118,0.028705 0.0249,0.047589 0.09154,0.1261208 0.393566,0.7379197 0.558715,1.1317493 0.03283,0.078264 0.07259,0.1743183 0.08837,0.2134518 0.01578,0.03913 0.04073,0.097463 0.05545,0.1296247 0.01473,0.03218 0.02679,0.064179 0.02679,0.071151 2.9e-5,0.00695 0.01987,0.060697 0.04414,0.1193916 0.02425,0.058702 0.04941,0.1227326 0.05591,0.1423012 0.0065,0.019583 0.02867,0.080396 0.04923,0.1351811 0.0206,0.054786 0.0429,0.1188232 0.04961,0.1423012 0.0067,0.023492 0.03073,0.093919 0.05334,0.1565272 l 0.04115,0.1138388 0.678617,0.00369 c 0.406564,0.00217 0.678616,0.00898 0.678616,0.016904 0,0.00731 0.01908,0.3129888 0.04238,0.679337 0.02331,0.3663517 0.06502,1.0246904 0.09268,1.4629674 0.02765,0.438281 0.06622,1.046608 0.08568,1.351836 0.0684,1.073192 0.54766,8.666105 0.547667,8.676653 0,0.0059 -2.484845,0.01064 -5.521882,0.01064 H 5.6647994 Z m 3.09398,-12.2945866 c 0.03341,-0.099787 0.06884,-0.2006415 0.07871,-0.2241195 0.0099,-0.023492 0.03117,-0.077912 0.04733,-0.1209517 0.03755,-0.099982 0.217365,-0.5545555 0.23066,-0.5831338 0.0055,-0.011909 0.0244,-0.053656 0.04188,-0.092786 0.06526,-0.1459463 0.187075,-0.407907 0.254754,-0.5478481 0.05744,-0.1187726 0.314857,-0.5847555 0.349798,-0.6332281 0.0169,-0.023492 0.0387,-0.058699 0.04839,-0.078271 0.0097,-0.019583 0.03327,-0.057982 0.05245,-0.085376 0.01915,-0.027402 0.04791,-0.069015 0.06391,-0.092493 0.1151736,-0.1691166 0.2143016,-0.3000806 0.3204266,-0.4233418 0.04696,-0.054539 0.09498,-0.1127492 0.106722,-0.1293496 0.02074,-0.029284 0.01966,-0.029212 -0.03558,0.0029 -0.128202,0.074789 -0.249892,0.1725445 -0.3913966,0.314415 -0.168762,0.1691963 -0.269732,0.2952084 -0.450744,0.5625372 -0.143333,0.2116817 -0.130095,0.189887 -0.311128,0.5122764 -0.09134,0.1626589 -0.303425,0.5965813 -0.389486,0.7968716 -0.04035,0.093916 -0.08187,0.1899666 -0.09225,0.2134482 -0.05771,0.1305043 -0.164067,0.4036248 -0.261815,0.6723582 l -0.0427,0.1173971 h 0.159647 0.159647 z m 4.3084846,0.1494141 c -0.0086,-0.035329 -0.04816,-0.1461852 -0.0953,-0.2668113 -0.01683,-0.043043 -0.03669,-0.098748 -0.04416,-0.1237896 -0.0075,-0.025049 -0.02291,-0.063462 -0.03435,-0.08538 -0.0114,-0.0219 -0.02085,-0.047043 -0.02089,-0.055832 -6.1e-5,-0.014045 -0.03294,-0.097937 -0.07181,-0.1832374 -0.0071,-0.015674 -0.03475,-0.08289 -0.06139,-0.1494141 C 12.595233,7.3783904 12.379081,6.9328376 12.163319,6.5545803 12.116997,6.4733743 11.989801,6.2764501 11.89885,6.1451205 11.741219,5.9175297 11.529287,5.6924439 11.332946,5.5441049 l -0.103428,-0.078148 -0.0531,0.032216 c -0.07337,0.044545 -0.278738,0.2204416 -0.374333,0.3206338 -0.230863,0.241954 -0.441358,0.5392257 -0.683576,0.9653873 -0.117545,0.2068131 -0.3063826,0.5860767 -0.4073886,0.8182139 -0.01191,0.027402 -0.03316,0.075422 -0.04717,0.1067259 -0.01401,0.031311 -0.04231,0.098542 -0.06287,0.1494141 -0.02056,0.050869 -0.04628,0.1117031 -0.05717,0.1351811 -0.02096,0.045244 -0.108275,0.2696708 -0.132854,0.3415164 -0.008,0.023492 -0.02831,0.077912 -0.04503,0.1209555 -0.01672,0.043046 -0.03898,0.1054807 -0.04944,0.1387429 l -0.01904,0.060472 h 1.8928356 1.892836 z m 0.906345,-0.00713 c -0.0051,-0.021501 -0.01423,-0.045533 -0.02013,-0.053359 -0.0059,-0.00785 -0.01752,-0.036643 -0.02577,-0.064034 -0.03308,-0.10985 -0.07244,-0.2162248 -0.197492,-0.5336189 C 13.682842,7.8241476 13.68087,7.8194238 13.584011,7.5953008 13.469018,7.3292281 13.418239,7.2201747 13.306058,6.998343 13.203897,6.7963334 13.162924,6.7196336 13.085244,6.584981 13.067217,6.55367 13.041676,6.508853 13.028558,6.485375 13.015454,6.461883 12.968998,6.388256 12.925357,6.3217315 12.637939,5.8835921 12.385654,5.6209401 12.076748,5.4382673 c -0.05633,-0.033302 -0.05596,-0.032542 0.03558,0.074325 0.151688,0.1771019 0.314361,0.3978729 0.40727,0.5527203 0.03529,0.058854 0.08856,0.146312 0.118338,0.1943502 0.02979,0.048045 0.06375,0.1056725 0.07549,0.1280682 0.01176,0.022406 0.03902,0.07274 0.06061,0.1118732 0.103646,0.1878491 0.257313,0.5075852 0.376133,0.7826386 0.04057,0.093919 0.07898,0.1805841 0.08536,0.1925946 0.01629,0.030696 0.226668,0.5651724 0.254652,0.6469688 0.008,0.023493 0.02816,0.077905 0.04477,0.1209553 0.01661,0.043043 0.04876,0.1326907 0.07149,0.1992152 0.02273,0.066525 0.04945,0.1417657 0.05937,0.167202 l 0.01803,0.046246 h 0.153678 0.153682 z"
       style="fill:#ffffff;stroke-width:0.01422985" />
  </g>
</svg>
