<?xml version="1.0" encoding="UTF-8" standalone="no"?>
<svg
   xmlns:dc="http://purl.org/dc/elements/1.1/"
   xmlns:cc="http://creativecommons.org/ns#"
   xmlns:rdf="http://www.w3.org/1999/02/22-rdf-syntax-ns#"
   xmlns:svg="http://www.w3.org/2000/svg"
   xmlns="http://www.w3.org/2000/svg"
   xmlns:sodipodi="http://sodipodi.sourceforge.net/DTD/sodipodi-0.dtd"
   xmlns:inkscape="http://www.inkscape.org/namespaces/inkscape"
   height="16"
   viewBox="0 0 16 16"
   width="16"
   version="1.1"
   id="svg10"
   sodipodi:docname="toilets-m.svg"
   inkscape:version="0.92.3 (2405546, 2018-03-11)">
  <metadata
     id="metadata16">
    <rdf:RDF>
      <cc:Work
         rdf:about="">
        <dc:format>image/svg+xml</dc:format>
        <dc:type
           rdf:resource="http://purl.org/dc/dcmitype/StillImage" />
        <dc:title></dc:title>
      </cc:Work>
    </rdf:RDF>
  </metadata>
  <defs
     id="defs14" />
  <sodipodi:namedview
     pagecolor="#ffffff"
     bordercolor="#666666"
     borderopacity="1"
     objecttolerance="10"
     gridtolerance="10"
     guidetolerance="10"
     inkscape:pageopacity="0"
     inkscape:pageshadow="2"
     inkscape:window-width="1215"
     inkscape:window-height="748"
     id="namedview12"
     showgrid="false"
     inkscape:zoom="16"
     inkscape:cx="3.9294445"
     inkscape:cy="1.1691099"
     inkscape:window-x="177"
     inkscape:window-y="54"
     inkscape:window-maximized="0"
     inkscape:current-layer="svg10" />
  <g
     id="g8188"
     transform="matrix(0.03597731,0,0,0.03597731,7.408623,7.8650851)">
    <circle
       r="211.62695"
       cy="3.75"
       cx="16.4375"
       id="path1043"
       style="opacity:1;fill:#6c5353;fill-opacity:1;stroke:none;stroke-width:6.07246351;stroke-linecap:round;stroke-miterlimit:4;stroke-dasharray:none;stroke-opacity:1" />
    <g
       id="text3187"
       style="font-style:normal;font-weight:normal;font-size:11.30491543px;line-height:1.25;font-family:sans-serif;letter-spacing:0px;word-spacing:0px;fill:#ffffff;fill-opacity:1;stroke:none;stroke-width:0.28262287"
       transform="matrix(3.6865132,0,0,3.8748888,888.16685,-668.67492)"
       aria-label="wc">
      <path
         inkscape:connector-curvature="0"
         id="path815"
         style="font-style:normal;font-variant:normal;font-weight:bold;font-stretch:normal;font-size:54.26359558px;line-height:19.85000038;font-family:Padauk;-inkscape-font-specification:'Padauk Bold';fill:#ffffff;stroke-width:0.28262287"
         d="m -231.114,161.10472 -7.41885,23.58135 h -6.465 l -5.40516,-17.54029 -5.40516,17.54029 h -6.465 l -7.47184,-23.58135 h 5.93508 l 4.87524,16.53344 5.1402,-16.53344 h 6.72996 l 5.1932,16.53344 4.92823,-16.53344 z" />
      <path
         inkscape:connector-curvature="0"
         id="path817"
         style="font-style:normal;font-variant:normal;font-weight:bold;font-stretch:normal;font-size:54.26359558px;line-height:19.85000038;font-family:Padauk;-inkscape-font-specification:'Padauk Bold';fill:#ffffff;stroke-width:0.28262287"
         d="m -208.22155,176.26037 q 0,4.29234 -2.38463,6.67697 -2.38463,2.38463 -7.31286,2.38463 -10.38639,0 -10.38639,-12.24111 0,-6.20004 2.59659,-9.37954 2.5966,-3.2325 7.63082,-3.2325 4.87525,0 7.31287,2.11967 2.43762,2.11967 2.43762,6.09405 v 0.37095 h -5.56414 q 0.053,-2.43763 -1.11282,-3.65644 -1.16582,-1.21881 -2.96754,-1.21881 -2.54361,0 -3.76242,1.9607 -1.16582,1.96069 -1.16582,6.83594 0,4.76926 1.05983,6.72996 1.11283,1.9077 3.76242,1.9077 4.08037,0 4.18635,-5.35217 z" />
    </g>
  </g>
</svg>
